# xmcd CD database file
#
# Track frame offsets:
#	150
#	25278
#	47481
#	88584
#	110562
#	133440
#	148668
#	160296
#
# Disc length: 2269 seconds
#
# Revision: 1
# Processed by: cddbd v1.5.2PL0 Copyright (c) Steve Scherf et al.
# Submitted via: CDex 1.70beta1
#
DISCID=6f08db08
DTITLE=Renzo Ruggieri - Improvvisazioni Guidate
DYEAR=1998
DGENRE=Jazz
TTITLE0=Improvvisazioni Guidate_01_TANGO
TTITLE1=Improvvisazioni Guidate_02
TTITLE2=Improvvisazioni Guidate_03_RITMI
TTITLE3=Improvvisazioni Guidate_04_BLUES ESTESO
TTITLE4=Improvvisazioni Guidate_05_VOCI
TTITLE5=Improvvisazioni Guidate_06_RUMORI
TTITLE6=Improvvisazioni Guidate_07_BLUES ESTESO
TTITLE7=Improvvisazioni Guidate_08_TANGO
EXTD=YEAR: 1998
EXTT0=
EXTT1=
EXTT2=
EXTT3=
EXTT4=
EXTT5=
EXTT6=
EXTT7=
PLAYORDER=
